<svg id="Layer_1" data-name="Layer 1" xmlns="http://www.w3.org/2000/svg" viewBox="0 0 280.68 67.6"><defs><style>.cls-1{fill:#a30000;}.cls-2{fill:#c00;}.cls-3{fill:#820000;}</style></defs><title>Logotype_RH_OpenShift_wLogo_RGB_Black</title><path d="M98.21,27.05l-2.75-5.66H93.59v5.66H89V10.25h7.51a11.07,11.07,0,0,1,2.67.3,5.77,5.77,0,0,1,2.08.95,4.14,4.14,0,0,1,1.33,1.69,6.21,6.21,0,0,1,.47,2.53,5.35,5.35,0,0,1-.82,3.1,5.08,5.08,0,0,1-2.21,1.82l3.37,6.41ZM98,14.55A2.08,2.08,0,0,0,96.41,14H93.59v3.67h2.75A2.3,2.3,0,0,0,98,17.23a1.88,1.88,0,0,0,.48-1.39A1.81,1.81,0,0,0,98,14.55Z" transform="translate(0 0.01)"/><path d="M106.93,27.05V10.25h12.86v3.91h-8.25v2.26h5v3.84h-5v2.88H120v3.91Z" transform="translate(0 0.01)"/><path d="M137.6,22.55a6.06,6.06,0,0,1-1.73,2.62A7,7,0,0,1,133,26.61a15.85,15.85,0,0,1-3.92.44h-5.45V10.25h5.88a14.59,14.59,0,0,1,3.57.41,6.13,6.13,0,0,1,4.46,3.93,11.29,11.29,0,0,1,.61,4A11.86,11.86,0,0,1,137.6,22.55Zm-4.4-5.92a3.27,3.27,0,0,0-.66-1.36,2.62,2.62,0,0,0-1.2-.78,5.72,5.72,0,0,0-1.83-.26h-1.15v8.84h1a6.62,6.62,0,0,0,1.85-.23,2.76,2.76,0,0,0,1.26-.75,3,3,0,0,0,.71-1.36,9,9,0,0,0,.21-2.1A8.94,8.94,0,0,0,133.2,16.63Z" transform="translate(0 0.01)"/><path d="M160.33,27.05V20.43H155.1v6.62h-4.75V10.25h4.75v6.12h5.23V10.25h4.75v16.8Z" transform="translate(0 0.01)"/><path d="M180.06,27.05l-.91-2.95h-5l-.92,2.95h-5l6.1-16.8H179l6.1,16.8Zm-2.35-7.75-.39-1.42L177,16.8c-.09-.32-.16-.61-.23-.87s-.12-.54-.16-.83c0,.29-.11.57-.17.84s-.14.57-.23.89l-.3,1.08c-.11.4-.24.86-.38,1.39l-.32,1.1H178Z" transform="translate(0 0.01)"/><path d="M194.6,14.31V27.05H190V14.31h-4.71V10.25h14.07v4.06Z" transform="translate(0 0.01)"/><path d="M205.54,13.16a2,2,0,0,1-1.14,1.14,2.2,2.2,0,0,1-.86.17,2.24,2.24,0,0,1-.86-.17,2.08,2.08,0,0,1-1.14-1.14,2.39,2.39,0,0,1,0-1.72,2.17,2.17,0,0,1,1.14-1.14,2.24,2.24,0,0,1,.86-.17,2.2,2.2,0,0,1,.86.17,2.08,2.08,0,0,1,1.14,1.14,2.26,2.26,0,0,1,0,1.72Zm-.32-1.58a1.85,1.85,0,0,0-2.4-1,1.73,1.73,0,0,0-.57.38,1.74,1.74,0,0,0-.39.58,1.92,1.92,0,0,0-.14.72,1.89,1.89,0,0,0,.14.72,1.74,1.74,0,0,0,.39.58,1.73,1.73,0,0,0,.57.38,1.81,1.81,0,0,0,2.54-1.68A1.92,1.92,0,0,0,205.22,11.58Zm-.83.67a.8.8,0,0,1-.37.24l.49.95H204l-.46-.91h-.46v.91h-.4V11.08h1a1,1,0,0,1,.3,0,.75.75,0,0,1,.25.13.73.73,0,0,1,.16.22.79.79,0,0,1,.07.32A.74.74,0,0,1,204.39,12.25Zm-.37-.7a.43.43,0,0,0-.27-.08h-.63v.67h.63a.5.5,0,0,0,.27-.08.31.31,0,0,0,.1-.26A.3.3,0,0,0,204,11.55Z" transform="translate(0 0.01)"/><path d="M108.11,49.65A12.5,12.5,0,0,1,106,53.77a9.64,9.64,0,0,1-3.33,2.7,9.91,9.91,0,0,1-8.55,0,9.54,9.54,0,0,1-3.29-2.68,12.51,12.51,0,0,1-2.1-4.1,18.73,18.73,0,0,1,0-10.46,12.65,12.65,0,0,1,2.13-4.12,9.6,9.6,0,0,1,15.15,0,13,13,0,0,1,2.13,4.1,18.61,18.61,0,0,1,0,10.46Zm-2.65-9.47a10.79,10.79,0,0,0-1.64-3.31,7.25,7.25,0,0,0-2.45-2.12A6.47,6.47,0,0,0,98.31,34a6.29,6.29,0,0,0-3,.74,7.22,7.22,0,0,0-2.4,2.09,10.37,10.37,0,0,0-1.58,3.27,15.16,15.16,0,0,0-.58,4.3,14.48,14.48,0,0,0,.6,4.31A10.76,10.76,0,0,0,93,52a7.09,7.09,0,0,0,2.43,2.12,6.47,6.47,0,0,0,3.06.74,6.39,6.39,0,0,0,3-.74,7.18,7.18,0,0,0,2.42-2.09,10.59,10.59,0,0,0,1.58-3.27,15.12,15.12,0,0,0,.57-4.3A14.49,14.49,0,0,0,105.46,40.18Z" transform="translate(0 0.01)"/><path d="M131.24,42.7a6.85,6.85,0,0,1-1.75,2.45,7.38,7.38,0,0,1-2.7,1.5,11.57,11.57,0,0,1-3.46.5h-6.12v9.9h-2.8V31.85h9.43a10.72,10.72,0,0,1,3.18.45,6.82,6.82,0,0,1,2.54,1.39A6.33,6.33,0,0,1,131.25,36a9.18,9.18,0,0,1,0,6.66Zm-3.55-7a5.47,5.47,0,0,0-4-1.31h-6.52V44.59h6.16q5.69,0,5.69-5.11A5,5,0,0,0,127.69,35.72Z" transform="translate(0 0.01)"/><path d="M136.65,57.05V31.85h15.23v2.56H139.46v7.92h7.2v2.55h-7.2v9.61h13v2.56Z" transform="translate(0 0.01)"/><path d="M173.3,57.05l-11-17.24c-.15-.22-.3-.48-.47-.78l-.5-.9c-.17-.3-.33-.58-.49-.84a7.19,7.19,0,0,1-.34-.65V57.05h-2.73V31.85h2.73l10.91,17.57c.14.21.3.47.47.77l.5.9.49.85a6.07,6.07,0,0,1,.34.65V31.85H176v25.2Z" transform="translate(0 0.01)"/><path d="M197.48,53.2a6.22,6.22,0,0,1-1.64,2.23,8.08,8.08,0,0,1-2.63,1.48,10.68,10.68,0,0,1-3.53.54,11.38,11.38,0,0,1-4.77-1A12.46,12.46,0,0,1,181.22,54l1.87-2.08a12.88,12.88,0,0,0,3.1,2.19,7.94,7.94,0,0,0,3.6.83,6.24,6.24,0,0,0,4-1.15,3.83,3.83,0,0,0,1.46-3.17,4.23,4.23,0,0,0-.29-1.58,3.51,3.51,0,0,0-1-1.34,9.51,9.51,0,0,0-1.86-1.2,22.17,22.17,0,0,0-2.88-1.21,24.17,24.17,0,0,1-3.43-1.46,9.47,9.47,0,0,1-2.24-1.58,5.08,5.08,0,0,1-1.22-1.89,7.13,7.13,0,0,1-.38-2.41,6,6,0,0,1,.58-2.7,6.1,6.1,0,0,1,1.6-2,6.85,6.85,0,0,1,2.48-1.27,11.31,11.31,0,0,1,3.23-.44,11.48,11.48,0,0,1,4.3.72,13.37,13.37,0,0,1,3.36,2l-1.8,2.2a11.19,11.19,0,0,0-2.75-1.75,8.41,8.41,0,0,0-3.29-.59,7.09,7.09,0,0,0-2.24.31,4.44,4.44,0,0,0-1.53.81A3,3,0,0,0,185,36.3a3.7,3.7,0,0,0-.27,1.42,4.19,4.19,0,0,0,.22,1.42,3,3,0,0,0,.86,1.22,7.54,7.54,0,0,0,1.82,1.17,27.29,27.29,0,0,0,3.08,1.26,26.74,26.74,0,0,1,3.49,1.52A8.86,8.86,0,0,1,196.47,46a5.38,5.38,0,0,1,1.2,2,7.87,7.87,0,0,1,.36,2.49A7,7,0,0,1,197.48,53.2Z" transform="translate(0 0.01)"/><path d="M219.2,57.05V45.17H206.67V57.05h-2.81V31.85h2.81V42.61H219.2V31.85H222v25.2Z" transform="translate(0 0.01)"/><path d="M228.81,57.05V31.85h2.81v25.2Z" transform="translate(0 0.01)"/><path d="M241.23,34.41v8.35h6.92v2.55h-6.92V57.05h-2.81V31.85h14.8v2.56Z" transform="translate(0 0.01)"/><path d="M266.83,34.41V57.05H264V34.41H256.6V31.85h17.64v2.56Z" transform="translate(0 0.01)"/><path d="M280.52,34.81a2.14,2.14,0,0,1-.46.69,2.06,2.06,0,0,1-.69.45,2.24,2.24,0,0,1-2.4-.45,2.29,2.29,0,0,1-.45-.69,2.26,2.26,0,0,1,0-1.72,2.12,2.12,0,0,1,.45-.68,2,2,0,0,1,.69-.46,2.24,2.24,0,0,1,1.71,0,1.94,1.94,0,0,1,.69.46,2,2,0,0,1,.46.68,2.39,2.39,0,0,1,0,1.72Zm-.32-1.58a1.91,1.91,0,0,0-.39-.58,1.67,1.67,0,0,0-.58-.38,1.9,1.9,0,0,0-1.43,0,1.77,1.77,0,0,0-.58.38,1.88,1.88,0,0,0-.38.58,1.75,1.75,0,0,0-.14.72,1.71,1.71,0,0,0,.14.72,1.88,1.88,0,0,0,.38.58,1.77,1.77,0,0,0,.58.38,1.9,1.9,0,0,0,1.43,0,1.67,1.67,0,0,0,.58-.38,1.91,1.91,0,0,0,.39-.58,1.88,1.88,0,0,0,.13-.72A1.92,1.92,0,0,0,280.2,33.23Zm-.84.67a.76.76,0,0,1-.36.24l.48,1H279l-.46-.91h-.45v.91h-.41V32.73h1a.92.92,0,0,1,.29,0,.66.66,0,0,1,.25.13.62.62,0,0,1,.17.22.79.79,0,0,1,.06.32A.74.74,0,0,1,279.36,33.9Zm-.37-.7a.4.4,0,0,0-.27-.08h-.62v.67h.62a.46.46,0,0,0,.27-.08.32.32,0,0,0,.11-.26A.31.31,0,0,0,279,33.2Z" transform="translate(0 0.01)"/><path class="cls-1" d="M21.37,30.3,9.56,34.61a34.27,34.27,0,0,0,.93,5.6l11.23-4.09a22.2,22.2,0,0,1-.35-5.82" transform="translate(0 0.01)"/><path class="cls-1" d="M73.6,17.24a32.59,32.59,0,0,0-2.88-4.9L58.9,16.65a21.92,21.92,0,0,1,3.48,4.67Z" transform="translate(0 0.01)"/><path class="cls-2" d="M47.61,13.89A22,22,0,0,1,54,18.44l11.82-4.3A33.77,33.77,0,0,0,4.64,36.39L16.46,32.1A21.88,21.88,0,0,1,47.61,13.89" transform="translate(0 0.01)"/><path class="cls-2" d="M11.23,39.94,0,44A34.16,34.16,0,0,0,5.28,55.47l11.79-4.29a22.09,22.09,0,0,1-5.84-11.24" transform="translate(0 0.01)"/><path class="cls-2" d="M60.21,35.48a21.69,21.69,0,0,1-2,7.59,21.94,21.94,0,0,1-35.58,6.08L10.85,53.44A33.49,33.49,0,0,0,24,64.43,33.84,33.84,0,0,0,69,48.08a33.41,33.41,0,0,0,3-16.89Z" transform="translate(0 0.01)"/><path class="cls-2" d="M63.11,21.05,51.88,25.14A22,22,0,0,1,54.63,37.5l11.79-4.28a33.92,33.92,0,0,0-3.31-12.17" transform="translate(0 0.01)"/><path class="cls-3" d="M21.33,32.68a21,21,0,0,1,0-2.38L9.56,34.61c0,.76.15,1.51.27,2.26Z" transform="translate(0 0.01)"/><path class="cls-3" d="M71.89,14.12c-.37-.6-.76-1.2-1.17-1.78L58.91,16.65a20.89,20.89,0,0,1,1.45,1.67Z" transform="translate(0 0.01)"/><path class="cls-1" d="M10.85,53.44a33.71,33.71,0,0,0,3,3.65L26.7,52.41a21.91,21.91,0,0,1-4.06-3.26ZM72,31.19,60.21,35.48a21.89,21.89,0,0,1-1,5.07L72,35.87a33.2,33.2,0,0,0,0-4.68" transform="translate(0 0.01)"/></svg>